<?xml version="1.0" encoding="utf-8" ?><svg xmlns="http://www.w3.org/2000/svg" xmlns:xlink="http://www.w3.org/1999/xlink" width="2007" height="558" viewBox="0 0 2007 558" xmlns:c2pa="http://c2pa.org/manifest"><metadata><c2pa:manifest>AAAk4Wp1bWIAAAAeanVtZGMycGEAEQAQgAAAqgA4m3EDYzJwYQAAAA6CanVtYgAAAEdqdW1kYzJtYQARABCAAACqADibcQN1cm46YzJwYTo4ZGU5M2IyMS1jYWUyLTRmNjMtYjJkZi04NDMzYzVhNmQyMWIAAAADs2p1bWIAAAApanVtZGMyYXMAEQAQgAAAqgA4m3EDYzJwYS5hc3NlcnRpb25zAAAAAMlqdW1iAAAARGp1bWRjYm9yABEAEIAAAKoAOJtxE2MycGEuaW5ncmVkaWVudC52MwAAAAAYYzJzaPxGCKBHWpE7Rs/eqMYUBboAAAB9Y2JvcqRscmVsYXRpb25zaGlwaHBhcmVudE9maGRjOnRpdGxlZnNvdXJjZWlkYzpmb3JtYXRqaW1hZ2Uvd2VicGppbnN0YW5jZUlEeCx4bXA6aWlkOjllODRkNjA3LThlNDUtNDYxYy1iODMxLTMxYjZlZTM5ZTUxNwAAAfVqdW1iAAAAQWp1bWRjYm9yABEAEIAAAKoAOJtxE2MycGEuYWN0aW9ucy52MgAAAAAYYzJzaJ+VcM/qbjEieqGLG6uHl70AAAGsY2JvcqFnYWN0aW9uc4KiZmFjdGlvbmtjMnBhLm9wZW5lZGpwYXJhbWV0ZXJzoWtpbmdyZWRpZW50c4GiY3VybHgtc2VsZiNqdW1iZj1jMnBhLmFzc2VydGlvbnMvYzJwYS5pbmdyZWRpZW50LnYzZGhhc2hYIMqA37l0JOs69EDoOGalV6ue/sgXcqyAmBYshYCa7Er2pGZhY3Rpb25rYzJwYS5lZGl0ZWRqcGFyYW1ldGVyc6FraW5ncmVkaWVudHOBomN1cmx4LXNlbGYjanVtYmY9YzJwYS5hc3NlcnRpb25zL2MycGEuaW5ncmVkaWVudC52M2RoYXNoWCDKgN+5dCTrOvRA6DhmpVernv7IF3KsgJgWLIWAmuxK9nFkaWdpdGFsU291cmNlVHlwZXhTaHR0cDovL2N2LmlwdGMub3JnL25ld3Njb2Rlcy9kaWdpdGFsc291cmNldHlwZS9jb21wb3NpdGVXaXRoVHJhaW5lZEFsZ29yaXRobWljTWVkaWFrZGVzY3JpcHRpb252Q3JlYXRlZCBieSBSZWNyYWZ0IEFJLgAAAMRqdW1iAAAAQGp1bWRjYm9yABEAEIAAAKoAOJtxE2MycGEuaGFzaC5kYXRhAAAAABhjMnNo9hIQNElVadMWzCxwHRxCgwAAAHxjYm9ypWpleGNsdXNpb25zgaJlc3RhcnQY2WZsZW5ndGgZE4xkbmFtZW5qdW1iZiBtYW5pZmVzdGNhbGdmc2hhMjU2ZGhhc2hYIATHaKUg0UK/05SqiLJTCGq0dx+cpQXQi1h/yvkkCrlcY3BhZEkAAAAAAAAAAAAAAAKkanVtYgAAACdqdW1kYzJjbAARABCAAACqADibcQNjMnBhLmNsYWltLnYyAAAAAnVjYm9yp2ppbnN0YW5jZUlEeCx4bXA6aWlkOjgxMWViOTQxLTE4ZjEtNDU3Yy05ODZhLTBiZDhiNGI0OTVlNnRjbGFpbV9nZW5lcmF0b3JfaW5mb6NkbmFtZWpyZWNyYWZ0LmFpZ3ZlcnNpb254KDgxY2U4MmUyYzVjM2NiZmJlOGM2ZmJlMTc5ZDVmOGQ5MWM0MDljZTF3b3JnLmNvbnRlbnRhdXRoLmMycGFfcnNmMC45MC43aXNpZ25hdHVyZXhNc2VsZiNqdW1iZj0vYzJwYS91cm46YzJwYTo4ZGU5M2IyMS1jYWUyLTRmNjMtYjJkZi04NDMzYzVhNmQyMWIvYzJwYS5zaWduYXR1cmVyY3JlYXRlZF9hc3NlcnRpb25zgqJjdXJseCpzZWxmI2p1bWJmPWMycGEuYXNzZXJ0aW9ucy9jMnBhLmFjdGlvbnMudjJkaGFzaFgg19JCmEmyJPb9TbSJymfl2McZgHNU3VeMOVSd27+42P+iY3VybHgpc2VsZiNqdW1iZj1jMnBhLmFzc2VydGlvbnMvYzJwYS5oYXNoLmRhdGFkaGFzaFggNosYX2grdzn922lU0aZSefNpLDv6tSmphLIv9qyctbNzZ2F0aGVyZWRfYXNzZXJ0aW9uc4GiY3VybHgtc2VsZiNqdW1iZj1jMnBhLmFzc2VydGlvbnMvYzJwYS5pbmdyZWRpZW50LnYzZGhhc2hYIMqA37l0JOs69EDoOGalV6ue/sgXcqyAmBYshYCa7Er2aGRjOnRpdGxleBpSZWNyYWZ0IEFJIEdlbmVyYXRlZCBJbWFnZWNhbGdmc2hhMjU2AAAH3Gp1bWIAAAAoanVtZGMyY3MAEQAQgAAAqgA4m3EDYzJwYS5zaWduYXR1cmUAAAAHrGNib3LShFkDsKIBJhghglkB5zCCAeMwggGJoAMCAQICCQC33lpjQ1FuejAKBggqhkjOPQQDAjBAMR8wHQYDVQQDDBZSZWNyYWZ0IFN0YWdpbmcgRGV2IENBMRAwDgYDVQQKDAdSZWNyYWZ0MQswCQYDVQQGEwJVUzAeFw0yNjA2MTIxOTQzNTBaFw0yNzA2MTIxOTQzNTBaMDcxCzAJBgNVBAYTAlVTMRMwEQYDVQQKEwpSZWNyYWZ0IEFJMRMwEQYDVQQDEwpyZWNyYWZ0LmFpMFkwEwYHKoZIzj0CAQYIKoZIzj0DAQcDQgAESmk1WwArIPw3hty3jsWHSA/1QOhBRu9xOjpJ2/iiIghScoEVM+Lnjds/7dqmG+giFL0vEb4DoogpX6KrGLcPNaN1MHMwDAYDVR0TAQH/BAIwADAOBgNVHQ8BAf8EBAMCBsAwEwYDVR0lBAwwCgYIKwYBBQUHAwQwHQYDVR0OBBYEFC8x6QXp/eki9cuCDx2vDJDLIV39MB8GA1UdIwQYMBaAFAILKjgayqqXSv/5v5MWaO2UeHm3MAoGCCqGSM49BAMCA0gAMEUCIFPISltGl775PEkIFRTZGsevWJvWnvBrE9kWU0MPgedQAiEAtA+AZBKEQ+DdK9mUZDctB2Wlt1iAsv0GRjfeYpReMsxZAb0wggG5MIIBX6ADAgECAgkAnPloO0+gE28wCgYIKoZIzj0EAwIwQDEfMB0GA1UEAwwWUmVjcmFmdCBTdGFnaW5nIERldiBDQTEQMA4GA1UECgwHUmVjcmFmdDELMAkGA1UEBhMCVVMwHhcNMjYwNjEyMTk0MDE2WhcNMjgwNjExMTk0MDE2WjBAMR8wHQYDVQQDDBZSZWNyYWZ0IFN0YWdpbmcgRGV2IENBMRAwDgYDVQQKDAdSZWNyYWZ0MQswCQYDVQQGEwJVUzBZMBMGByqGSM49AgEGCCqGSM49AwEHA0IABEPSEAZXFWymij2K0EnzoS/9NLO8VAwu0YpyLizvyNZPfcvcoeqFhfZD8Wj/rcdb9T3ji98q1arie99B9GRog8qjQjBAMA8GA1UdEwEB/wQFMAMBAf8wDgYDVR0PAQH/BAQDAgGGMB0GA1UdDgQWBBQCCyo4Gsqql0r/+b+TFmjtlHh5tzAKBggqhkjOPQQDAgNIADBFAiBUMDSJi5WA3kIY4BfmYqk24HLs0qpjicN0NpUP4bvNxQIhAPTvHC5v8X6FS6geI7XW7h84t1i/qdkTfg0RpMKWLMFboWNwYWRZA6QAAAAAAAAAAAAAAAAAAAAAAAAAAAAAAAAAAAAAAAAAAAAAAAAAAAAAAAAAAAAAAAAAAAAAAAAAAAAAAAAAAAAAAAAAAAAAAAAAAAAAAAAAAAAAAAAAAAAAAAAAAAAAAAAAAAAAAAAAAAAAAAAAAAAAAAAAAAAAAAAAAAAAAAAAAAAAAAAAAAAAAAAAAAAAAAAAAAAAAAAAAAAAAAAAAAAAAAAAAAAAAAAAAAAAAAAAAAAAAAAAAAAAAAAAAAAAAAAAAAAAAAAAAAAAAAAAAAAAAAAAAAAAAAAAAAAAAAAAAAAAAAAAAAAAAAAAAAAAAAAAAAAAAAAAAAAAAAAAAAAAAAAAAAAAAAAAAAAAAAAAAAAAAAAAAAAAAAAAAAAAAAAAAAAAAAAAAAAAAAAAAAAAAAAAAAAAAAAAAAAAAAAAAAAAAAAAAAAAAAAAAAAAAAAAAAAAAAAAAAAAAAAAAAAAAAAAAAAAAAAAAAAAAAAAAAAAAAAAAAAAAAAAAAAAAAAAAAAAAAAAAAAAAAAAAAAAAAAAAAAAAAAAAAAAAAAAAAAAAAAAAAAAAAAAAAAAAAAAAAAAAAAAAAAAAAAAAAAAAAAAAAAAAAAAAAAAAAAAAAAAAAAAAAAAAAAAAAAAAAAAAAAAAAAAAAAAAAAAAAAAAAAAAAAAAAAAAAAAAAAAAAAAAAAAAAAAAAAAAAAAAAAAAAAAAAAAAAAAAAAAAAAAAAAAAAAAAAAAAAAAAAAAAAAAAAAAAAAAAAAAAAAAAAAAAAAAAAAAAAAAAAAAAAAAAAAAAAAAAAAAAAAAAAAAAAAAAAAAAAAAAAAAAAAAAAAAAAAAAAAAAAAAAAAAAAAAAAAAAAAAAAAAAAAAAAAAAAAAAAAAAAAAAAAAAAAAAAAAAAAAAAAAAAAAAAAAAAAAAAAAAAAAAAAAAAAAAAAAAAAAAAAAAAAAAAAAAAAAAAAAAAAAAAAAAAAAAAAAAAAAAAAAAAAAAAAAAAAAAAAAAAAAAAAAAAAAAAAAAAAAAAAAAAAAAAAAAAAAAAAAAAAAAAAAAAAAAAAAAAAAAAAAAAAAAAAAAAAAAAAAAAAAAAAAAAAAAAAAAAAAAAAAAAAAAAAAAAAAAAAAAAAAAAAAAAAAAAAAAAAAAAAAAAAAAAAAAAAAAAAAAAAAAAAAAAAAAAAAAAAAAAAAAAAAAAAAAAAAAAAAAAAAAAAAAAAAAAAAAAAAAAAAAAAAAAAAAAAAAAAAAPZYQDGQBQPF8rFvWPx0l9MgFUgR0VxVD8FXxWSP2ZcBavZyWLymnww9jJx6MZo0qbmF4j9YMxez4Uv/ck3qS92F/24AABY5anVtYgAAAEdqdW1kYzJtYQARABCAAACqADibcQN1cm46YzJwYTphMTNiYjYzYS01ZDVjLTQ0NmMtYmJjMy04ODQzMmJlNjM2NzQAAAALeGp1bWIAAAApanVtZGMyYXMAEQAQgAAAqgA4m3EDYzJwYS5hc3NlcnRpb25zAAAACJVqdW1iAAAARGp1bWRjYm9yABEAEIAAAKoAOJtxE2MycGEuaW5ncmVkaWVudC52MwAAAAAYYzJzaKYgK2Ui6kq+0aWtQPbEmBgAAAhJY2JvcqdscmVsYXRpb25zaGlwaHBhcmVudE9maGRjOnRpdGxlZnNvdXJjZWlkYzpmb3JtYXRtaW1hZ2Uvc3ZnK3htbHF2YWxpZGF0aW9uUmVzdWx0c6JuYWN0aXZlTWFuaWZlc3SjZ3N1Y2Nlc3OGo2Rjb2RleB1jbGFpbVNpZ25hdHVyZS5pbnNpZGVWYWxpZGl0eWN1cmx4TXNlbGYjanVtYmY9L2MycGEvdXJuOmMycGE6OGRlOTNiMjEtY2FlMi00ZjYzLWIyZGYtODQzM2M1YTZkMjFiL2MycGEuc2lnbmF0dXJla2V4cGxhbmF0aW9udWNsYWltIHNpZ25hdHVyZSB2YWxpZKNkY29kZXgYY2xhaW1TaWduYXR1cmUudmFsaWRhdGVkY3VybHhNc2VsZiNqdW1iZj0vYzJwYS91cm46YzJwYTo4ZGU5M2IyMS1jYWUyLTRmNjMtYjJkZi04NDMzYzVhNmQyMWIvYzJwYS5zaWduYXR1cmVrZXhwbGFuYXRpb251Y2xhaW0gc2lnbmF0dXJlIHZhbGlko2Rjb2RleBlhc3NlcnRpb24uaGFzaGVkVVJJLm1hdGNoY3VybHhec2VsZiNqdW1iZj0vYzJwYS91cm46YzJwYTo4ZGU5M2IyMS1jYWUyLTRmNjMtYjJkZi04NDMzYzVhNmQyMWIvYzJwYS5hc3NlcnRpb25zL2MycGEuYWN0aW9ucy52MmtleHBsYW5hdGlvbng+aGFzaGVkIHVyaSBtYXRjaGVkOiBzZWxmI2p1bWJmPWMycGEuYXNzZXJ0aW9ucy9jMnBhLmFjdGlvbnMudjKjZGNvZGV4GWFzc2VydGlvbi5oYXNoZWRVUkkubWF0Y2hjdXJseF1zZWxmI2p1bWJmPS9jMnBhL3VybjpjMnBhOjhkZTkzYjIxLWNhZTItNGY2My1iMmRmLTg0MzNjNWE2ZDIxYi9jMnBhLmFzc2VydGlvbnMvYzJwYS5oYXNoLmRhdGFrZXhwbGFuYXRpb254PWhhc2hlZCB1cmkgbWF0Y2hlZDogc2VsZiNqdW1iZj1jMnBhLmFzc2VydGlvbnMvYzJwYS5oYXNoLmRhdGGjZGNvZGV4GWFzc2VydGlvbi5oYXNoZWRVUkkubWF0Y2hjdXJseGFzZWxmI2p1bWJmPS9jMnBhL3VybjpjMnBhOjhkZTkzYjIxLWNhZTItNGY2My1iMmRmLTg0MzNjNWE2ZDIxYi9jMnBhLmFzc2VydGlvbnMvYzJwYS5pbmdyZWRpZW50LnYza2V4cGxhbmF0aW9ueEFoYXNoZWQgdXJpIG1hdGNoZWQ6IHNlbGYjanVtYmY9YzJwYS5hc3NlcnRpb25zL2MycGEuaW5ncmVkaWVudC52M6NkY29kZXgYYXNzZXJ0aW9uLmRhdGFIYXNoLm1hdGNoY3VybHhdc2VsZiNqdW1iZj0vYzJwYS91cm46YzJwYTo4ZGU5M2IyMS1jYWUyLTRmNjMtYjJkZi04NDMzYzVhNmQyMWIvYzJwYS5hc3NlcnRpb25zL2MycGEuaGFzaC5kYXRha2V4cGxhbmF0aW9ub2RhdGEgaGFzaCB2YWxpZG1pbmZvcm1hdGlvbmFsgGdmYWlsdXJlgaNkY29kZXgbc2lnbmluZ0NyZWRlbnRpYWwudW50cnVzdGVkY3VybHhNc2VsZiNqdW1iZj0vYzJwYS91cm46YzJwYTo4ZGU5M2IyMS1jYWUyLTRmNjMtYjJkZi04NDMzYzVhNmQyMWIvYzJwYS5zaWduYXR1cmVrZXhwbGFuYXRpb254HXNpZ25pbmcgY2VydGlmaWNhdGUgdW50cnVzdGVkcGluZ3JlZGllbnREZWx0YXOBonZpbmdyZWRpZW50QXNzZXJ0aW9uVVJJeGFzZWxmI2p1bWJmPS9jMnBhL3VybjpjMnBhOjhkZTkzYjIxLWNhZTItNGY2My1iMmRmLTg0MzNjNWE2ZDIxYi9jMnBhLmFzc2VydGlvbnMvYzJwYS5pbmdyZWRpZW50LnYzcHZhbGlkYXRpb25EZWx0YXOjZ3N1Y2Nlc3OAbWluZm9ybWF0aW9uYWyBo2Rjb2RleBxpbmdyZWRpZW50LnVua25vd25Qcm92ZW5hbmNlY3VybHhhc2VsZiNqdW1iZj0vYzJwYS91cm46YzJwYTo4ZGU5M2IyMS1jYWUyLTRmNjMtYjJkZi04NDMzYzVhNmQyMWIvYzJwYS5hc3NlcnRpb25zL2MycGEuaW5ncmVkaWVudC52M2tleHBsYW5hdGlvbngrc291cmNlOiBpbmdyZWRpZW50IGRvZXMgbm90IGhhdmUgcHJvdmVuYW5jZWdmYWlsdXJlgGppbnN0YW5jZUlEeCx4bXA6aWlkOmNjM2U2YzAwLWRiMDMtNDlkNy04MjRmLTQ4MWMwMDAyYTljYW5hY3RpdmVNYW5pZmVzdKNjdXJseD5zZWxmI2p1bWJmPS9jMnBhL3VybjpjMnBhOjhkZTkzYjIxLWNhZTItNGY2My1iMmRmLTg0MzNjNWE2ZDIxYmNhbGdmc2hhMjU2ZGhhc2hYIATKePQb0B5aclWF9hCEM+bRKO4q5H2yGsQ2KMePNBHQbmNsYWltU2lnbmF0dXJlo2N1cmx4TXNlbGYjanVtYmY9L2MycGEvdXJuOmMycGE6OGRlOTNiMjEtY2FlMi00ZjYzLWIyZGYtODQzM2M1YTZkMjFiL2MycGEuc2lnbmF0dXJlY2FsZ2ZzaGEyNTZkaGFzaFggaUoV5cpoijansvsZN85yfzkM++a2kxnZJHrFTGdFB/UAAAHuanVtYgAAAEFqdW1kY2JvcgARABCAAACqADibcRNjMnBhLmFjdGlvbnMudjIAAAAAGGMyc2hlVD+y1Y7V8CUs7jo8+M8nAAABpWNib3KhZ2FjdGlvbnOComZhY3Rpb25rYzJwYS5vcGVuZWRqcGFyYW1ldGVyc6FraW5ncmVkaWVudHOBomN1cmx4LXNlbGYjanVtYmY9YzJwYS5hc3NlcnRpb25zL2MycGEuaW5ncmVkaWVudC52M2RoYXNoWCCj8Evw4IhrVJCu00Q+qf3GIdX8PzGB5KdWz2QoyUxwn6RmYWN0aW9ubGMycGEuY3JlYXRlZGpwYXJhbWV0ZXJzoWtpbmdyZWRpZW50c4GiY3VybHgtc2VsZiNqdW1iZj1jMnBhLmFzc2VydGlvbnMvYzJwYS5pbmdyZWRpZW50LnYzZGhhc2hYIKPwS/DgiGtUkK7TRD6p/cYh1fw/MYHkp1bPZCjJTHCfcWRpZ2l0YWxTb3VyY2VUeXBleEFodHRwOi8vY3YuaXB0Yy5vcmcvbmV3c2NvZGVzL2RpZ2l0YWxzb3VyY2V0eXBlL2NvbXBvc2l0ZVN5bnRoZXRpY2tkZXNjcmlwdGlvbngfQ29tcG9zZWQgaW4gdGhlIFJlY3JhZnQgZWRpdG9yLgAAAMRqdW1iAAAAQGp1bWRjYm9yABEAEIAAAKoAOJtxE2MycGEuaGFzaC5kYXRhAAAAABhjMnNo9Qokn2skKrrYOLl2wnAXPAAAAHxjYm9ypWpleGNsdXNpb25zgaJlc3RhcnQY6mZsZW5ndGgZMSxkbmFtZW5qdW1iZiBtYW5pZmVzdGNhbGdmc2hhMjU2ZGhhc2hYIIRuCyWYnUGchz7XPtbR34zJi3Ig357N3tJriO5oMhX/Y3BhZEkAAAAAAAAAAAAAAAKWanVtYgAAACdqdW1kYzJjbAARABCAAACqADibcQNjMnBhLmNsYWltLnYyAAAAAmdjYm9yp2ppbnN0YW5jZUlEeCx4bXA6aWlkOjhiYTE0YTQwLTdkYjgtNDkwNy05OGJlLTM5NmNjODljMDJlYnRjbGFpbV9nZW5lcmF0b3JfaW5mb6NkbmFtZWpyZWNyYWZ0LmFpZ3ZlcnNpb254KDgxY2U4MmUyYzVjM2NiZmJlOGM2ZmJlMTc5ZDVmOGQ5MWM0MDljZTF3b3JnLmNvbnRlbnRhdXRoLmMycGFfcnNmMC45MC43aXNpZ25hdHVyZXhNc2VsZiNqdW1iZj0vYzJwYS91cm46YzJwYTphMTNiYjYzYS01ZDVjLTQ0NmMtYmJjMy04ODQzMmJlNjM2NzQvYzJwYS5zaWduYXR1cmVyY3JlYXRlZF9hc3NlcnRpb25zgqJjdXJseCpzZWxmI2p1bWJmPWMycGEuYXNzZXJ0aW9ucy9jMnBhLmFjdGlvbnMudjJkaGFzaFggy6n9KRyNeBuunKATtponWHwZG4BaNDU03S6I9eAeaNaiY3VybHgpc2VsZiNqdW1iZj1jMnBhLmFzc2VydGlvbnMvYzJwYS5oYXNoLmRhdGFkaGFzaFggxQQ9mKGutCKviKlpwUCuUeFaBpje/ZFi0+J/e9ZjAD5zZ2F0aGVyZWRfYXNzZXJ0aW9uc4GiY3VybHgtc2VsZiNqdW1iZj1jMnBhLmFzc2VydGlvbnMvYzJwYS5pbmdyZWRpZW50LnYzZGhhc2hYIKPwS/DgiGtUkK7TRD6p/cYh1fw/MYHkp1bPZCjJTHCfaGRjOnRpdGxlbVJlY3JhZnQgSW1hZ2VjYWxnZnNoYTI1NgAAB9xqdW1iAAAAKGp1bWRjMmNzABEAEIAAAKoAOJtxA2MycGEuc2lnbmF0dXJlAAAAB6xjYm9y0oRZA7CiASYYIYJZAecwggHjMIIBiaADAgECAgkAt95aY0NRbnowCgYIKoZIzj0EAwIwQDEfMB0GA1UEAwwWUmVjcmFmdCBTdGFnaW5nIERldiBDQTEQMA4GA1UECgwHUmVjcmFmdDELMAkGA1UEBhMCVVMwHhcNMjYwNjEyMTk0MzUwWhcNMjcwNjEyMTk0MzUwWjA3MQswCQYDVQQGEwJVUzETMBEGA1UEChMKUmVjcmFmdCBBSTETMBEGA1UEAxMKcmVjcmFmdC5haTBZMBMGByqGSM49AgEGCCqGSM49AwEHA0IABEppNVsAKyD8N4bct47Fh0gP9UDoQUbvcTo6Sdv4oiIIUnKBFTPi543bP+3aphvoIhS9LxG+A6KIKV+iqxi3DzWjdTBzMAwGA1UdEwEB/wQCMAAwDgYDVR0PAQH/BAQDAgbAMBMGA1UdJQQMMAoGCCsGAQUFBwMEMB0GA1UdDgQWBBQvMekF6f3pIvXLgg8drwyQyyFd/TAfBgNVHSMEGDAWgBQCCyo4Gsqql0r/+b+TFmjtlHh5tzAKBggqhkjOPQQDAgNIADBFAiBTyEpbRpe++TxJCBUU2RrHr1ib1p7waxPZFlNDD4HnUAIhALQPgGQShEPg3SvZlGQ3LQdlpbdYgLL9BkY33mKUXjLMWQG9MIIBuTCCAV+gAwIBAgIJAJz5aDtPoBNvMAoGCCqGSM49BAMCMEAxHzAdBgNVBAMMFlJlY3JhZnQgU3RhZ2luZyBEZXYgQ0ExEDAOBgNVBAoMB1JlY3JhZnQxCzAJBgNVBAYTAlVTMB4XDTI2MDYxMjE5NDAxNloXDTI4MDYxMTE5NDAxNlowQDEfMB0GA1UEAwwWUmVjcmFmdCBTdGFnaW5nIERldiBDQTEQMA4GA1UECgwHUmVjcmFmdDELMAkGA1UEBhMCVVMwWTATBgcqhkjOPQIBBggqhkjOPQMBBwNCAARD0hAGVxVspoo9itBJ86Ev/TSzvFQMLtGKci4s78jWT33L3KHqhYX2Q/Fo/63HW/U944vfKtWq4nvfQfRkaIPKo0IwQDAPBgNVHRMBAf8EBTADAQH/MA4GA1UdDwEB/wQEAwIBhjAdBgNVHQ4EFgQUAgsqOBrKqpdK//m/kxZo7ZR4ebcwCgYIKoZIzj0EAwIDSAAwRQIgVDA0iYuVgN5CGOAX5mKpNuBy7NKqY4nDdDaVD+G7zcUCIQD07xwub/F+hUuoHiO11u4fOLdYv6nZE34NEaTClizBW6FjcGFkWQOkAAAAAAAAAAAAAAAAAAAAAAAAAAAAAAAAAAAAAAAAAAAAAAAAAAAAAAAAAAAAAAAAAAAAAAAAAAAAAAAAAAAAAAAAAAAAAAAAAAAAAAAAAAAAAAAAAAAAAAAAAAAAAAAAAAAAAAAAAAAAAAAAAAAAAAAAAAAAAAAAAAAAAAAAAAAAAAAAAAAAAAAAAAAAAAAAAAAAAAAAAAAAAAAAAAAAAAAAAAAAAAAAAAAAAAAAAAAAAAAAAAAAAAAAAAAAAAAAAAAAAAAAAAAAAAAAAAAAAAAAAAAAAAAAAAAAAAAAAAAAAAAAAAAAAAAAAAAAAAAAAAAAAAAAAAAAAAAAAAAAAAAAAAAAAAAAAAAAAAAAAAAAAAAAAAAAAAAAAAAAAAAAAAAAAAAAAAAAAAAAAAAAAAAAAAAAAAAAAAAAAAAAAAAAAAAAAAAAAAAAAAAAAAAAAAAAAAAAAAAAAAAAAAAAAAAAAAAAAAAAAAAAAAAAAAAAAAAAAAAAAAAAAAAAAAAAAAAAAAAAAAAAAAAAAAAAAAAAAAAAAAAAAAAAAAAAAAAAAAAAAAAAAAAAAAAAAAAAAAAAAAAAAAAAAAAAAAAAAAAAAAAAAAAAAAAAAAAAAAAAAAAAAAAAAAAAAAAAAAAAAAAAAAAAAAAAAAAAAAAAAAAAAAAAAAAAAAAAAAAAAAAAAAAAAAAAAAAAAAAAAAAAAAAAAAAAAAAAAAAAAAAAAAAAAAAAAAAAAAAAAAAAAAAAAAAAAAAAAAAAAAAAAAAAAAAAAAAAAAAAAAAAAAAAAAAAAAAAAAAAAAAAAAAAAAAAAAAAAAAAAAAAAAAAAAAAAAAAAAAAAAAAAAAAAAAAAAAAAAAAAAAAAAAAAAAAAAAAAAAAAAAAAAAAAAAAAAAAAAAAAAAAAAAAAAAAAAAAAAAAAAAAAAAAAAAAAAAAAAAAAAAAAAAAAAAAAAAAAAAAAAAAAAAAAAAAAAAAAAAAAAAAAAAAAAAAAAAAAAAAAAAAAAAAAAAAAAAAAAAAAAAAAAAAAAAAAAAAAAAAAAAAAAAAAAAAAAAAAAAAAAAAAAAAAAAAAAAAAAAAAAAAAAAAAAAAAAAAAAAAAAAAAAAAAAAAAAAAAAAAAAAAAAAAAAAAAAAAAAAAAAAAAAAAAAAAAAAAAAAAAAAAAAAAAAAAAAAAAAAAAAAAAAAAAAAAAAAAAAAAAAAAAAAAAAAAAAAAAAAAAAAAAAAAAAAAAAAAAAAAAAD2WEA5L8Gm+fkkL7defFxCMmyJ9ZZ4LVXVcEzORdYxS/DlkCuH23I/FSwgv6Ya9Yv7rSdqrDVVVVt5QCdvBw1ovecL</c2pa:manifest></metadata><path fill="#FEFEFE" d="M398.336 14.0451C400.069 13.9148 401.804 13.8161 403.541 13.7491C433.5 12.6409 456.655 30.4952 477.424 49.6791C502.253 72.612 522.276 94.2403 530.417 128.186C532.96 138.79 535.922 154.769 540.691 164.144C553.07 188.476 579.295 213.562 580.6 242.064C581.529 262.351 567.086 278.632 554.234 292.374C567.948 297.575 581.893 302.641 595.559 307.974C631.825 322.124 611.89 349.243 597.788 372.432C625.772 394.101 636.599 418.096 631.042 453.448C636.959 455.972 644.765 459.505 651.068 459.679C676.817 460.39 703.475 460.019 729.207 460.001L883.242 459.979L1372.89 459.93C1379.9 467.378 1389.96 480.164 1396.73 488.31C1437.14 488.543 1473.61 486.556 1513.82 484.335C1503.63 475.843 1492.1 467.076 1481.63 458.787L1763.47 457.998C1822.38 457.922 1879.73 456.969 1938.71 458.159C1889.65 469.939 1846.74 468.67 1796.89 469.418L1691.5 471.391C1669.9 471.73 1648.68 470.796 1627.21 473.269C1677.5 476.812 1727.64 477.832 1778.03 479.892C1814.47 481.381 1851.49 483.587 1887.95 483.459C1925.52 483.326 1944.17 464.611 1968.66 438.398C1946.49 438.405 1873.72 442.217 1857.82 433.567C1855.06 432.064 1853.09 430.314 1852.19 427.198C1850.39 421.013 1851.42 413.929 1852.76 407.763C1856.44 390.77 1863.97 374.696 1869.76 358.349C1876.68 338.841 1880.97 319.964 1891.04 301.531C1908.82 299.395 1925.47 299.907 1943.34 300.078L1935.97 321.415C1926.6 343.589 1916.22 376.372 1908.27 399.525C1921.05 399.06 1985.5 397.098 1990.99 402.488C1991.15 403.425 1991.25 404.57 1991.03 405.503C1966.53 513.55 1876.41 498.418 1789.56 498.267L1673.16 498.077L1053.51 498.283L866.264 498.273C829.903 498.25 791.705 496.694 755.515 500.384C746.353 501.318 731.1 511.175 723.254 516.404C721.303 525.788 717.864 540.531 706.398 540.927C665.604 542.337 622.702 541.36 581.946 541.357L316.492 541.37L132.158 541.408C102.83 541.424 73.5002 541.505 44.1773 541.597C32.3304 541.635 9.42755 534.62 16.4037 518.421C19.7712 510.602 28.6913 503.241 35.23 497.851C58.9605 479.474 86.5245 465.065 114.565 454.476C91.754 421.079 102.094 401.105 118.092 366.691C128.607 344.071 160.823 331.455 183.487 324.933C190.301 302.128 195.188 296.287 213.97 282.466C171.545 236.201 207.621 201.95 235.048 161.4C234.914 120.096 251.519 102.276 281.357 76.224C317.098 45.0196 350.751 21.7492 398.336 14.0451ZM270.549 116.434C262.043 135.712 255.212 150.884 244.655 169.321C230.159 194.638 197.73 223.699 209.749 254.938C220.906 283.936 239.247 276.537 253.503 296.832C256.91 297.457 262.407 298.197 265.265 299.757C266.894 299.54 267.807 299.168 269.323 298.633C256.001 288.54 240.839 279.073 230.328 265.864C223.417 257.179 220.149 247.227 221.45 236.143C224.207 212.644 278.878 145.755 297.717 130.911C320.545 112.923 366.913 99.0587 395.854 102.588C449.704 109.154 498.223 157.131 530.045 197.931C541.129 212.142 555.64 230.927 553.163 250.07C551.189 265.332 539.608 274.723 528.226 283.535L540.654 288.07C582.314 244.28 569.55 227.867 537.388 183.641C529.009 172.12 517.724 157.108 511.228 144.715C515.502 148.498 521.151 153.25 525.135 157.146C514.668 115.578 507.237 92.6608 473.969 63.521C444.462 37.6752 427.028 18.6439 385.163 29.2729C370.6 33.0981 356.581 38.7596 343.444 46.1215C317.685 60.3074 295.16 79.4558 274.056 99.7691C259.638 113.646 251.153 128.098 247.673 147.89C254.3 137.928 262.591 125.135 270.549 116.434ZM437.548 447.46C448.385 458.565 485.733 471.239 501.964 477.373C497.594 458.948 503.271 457.324 512.556 441.086C514.386 437.885 517.664 430.236 519.414 426.392C523.662 423.603 528.057 421.719 532.656 419.605C538.544 389.967 544.96 386.488 574.704 389.503C583.162 375.408 598.987 351.465 601.14 335.224C601.597 331.78 599.02 329.854 596.855 327.608L598.382 325.901C600.594 328.091 602.134 329.676 604.66 331.549L605.457 330.723C595.252 315.582 536.732 297.312 518.808 293.858L518.364 293.774C513.906 296.937 508.296 300.849 505.492 305.578C481.807 345.529 460.443 386.887 436.961 426.999C434.34 431.477 432.311 438.975 432.299 444.198L433.006 445.131C435.593 441.865 437.763 435.748 439.401 431.717L441.123 435.013C439.745 438.522 438.539 443.695 437.548 447.46ZM554.62 398.273C524.309 416.905 559.245 429.756 578.141 429.655C606.51 411.702 574.586 397.107 554.62 398.273ZM217.995 495.576C234.62 482.018 253.945 466.723 272.932 456.58C280.816 452.368 299.284 455.579 301.19 451.209C295.888 445.554 284.719 447.233 277.242 447.463C263.618 453.371 205.261 487.098 199.691 498.213C200.969 501.437 200.255 500.323 203.319 502.661C208.863 503.931 214.052 499.073 217.995 495.576ZM157.666 500.113L181.94 500.106L185.907 492.422C175.698 493.661 170.181 494.377 160.118 494.153C150.672 493.942 125.379 491.077 116.832 492.728C103.642 493.302 99.1911 493.703 87.4654 500.79C114.757 502.441 131.964 499.991 157.666 500.113ZM458.644 361.037C456.381 366.796 453.5 373.134 451.032 378.878C459.123 367.701 465.64 355.627 471.979 343.411C453.659 347.284 433.139 354.325 413.517 358.627C439.247 344.794 450.366 339.863 478.379 332.615C485.723 321.257 494.914 294.713 503.597 286.673L503.057 284.189C497.562 285.169 483.928 309.469 481.25 315.538C475.079 316.933 467.739 320.052 461.735 322.385C439.016 335.948 410.386 340.585 388.544 356.695C373.033 368.136 373.432 379.123 372.653 396.652C372.058 410.057 370.844 424.06 369.119 437.268C387.174 437.197 402.164 437.525 420.132 438.7C423.608 428.734 430.066 417.427 435.235 408.087C429.617 391.06 429.97 385.836 431.447 368.181C433.728 375.637 437.169 387.636 441.592 393.97C445.469 377.216 447.337 373.289 458.644 361.037ZM296.249 367.536C297.316 358.464 297.856 351.54 297.81 342.366C290.147 331.257 283.216 326.31 269.227 326.485C273.067 334.972 284.88 362.503 293.647 368.243C294.079 368.526 295.544 367.803 296.249 367.536ZM322.912 353.135L304.254 348.088C306.758 359.877 305.994 363.371 301.703 374.928C306.459 383.242 306.656 385.188 306.835 394.808C309.337 398.541 312.335 402.778 314.375 406.712C313.249 411.047 312.133 415.677 310.855 419.943C312.992 425.343 315.151 431.095 317.57 436.346L359.534 436.439C359.521 408.387 368.107 375.038 357.673 352.227C339.977 339.652 319.464 331.219 303.446 316.309C298.09 315.733 277.491 307.642 270.273 305.392C265.664 304.86 261.061 304.284 256.463 303.663L263.678 316.51C303.029 317.096 298.239 330.148 322.912 353.135ZM71.6618 513.876C99.3787 514.292 126.339 511.853 154.073 510.876C158.816 510.086 164.339 509.312 168.98 508.335C138.235 505.819 112.025 505.622 80.9866 506.207L71.6618 513.876ZM438.865 474.864C438.395 477.775 437.054 484.932 436.95 487.543C436.95 491.496 436.575 495.977 438.314 499.425L439.596 499.341C441.54 496.509 441.842 493.516 442.49 490.145C449.478 490.774 456.719 491.704 463.673 490.924L464.693 489.1L465.187 489.194L465.138 490.766L466.272 489.435L466.071 490.61L466.479 489.477L467.222 489.539C457.446 486.155 453.326 487.671 443.92 486.568C442.798 482.73 441.723 479.039 440.42 475.258L444.536 473.902L444.351 472.872C442.069 471.752 435.804 470.554 433.886 471.205L418.656 471.737C418.707 478.703 417.948 496.645 421.299 501.662C423.249 502.754 426.166 502.197 428.491 502.003L428.657 501.296C424.201 497.382 422.754 496.947 422.354 490.149C422.091 485.682 422.896 479.07 423.324 474.493L438.865 474.864ZM323.595 474.363L325.006 475.324C325.735 472.837 317.563 454.941 315.656 452.114C312.48 447.404 301.394 417.091 299.661 415.636C297.009 417.233 293.909 418.573 292.969 421.405C297.535 431.035 317.387 464.916 323.595 474.363ZM342.266 465.113C339.375 465.729 338.283 465.371 336.92 467.368C341 470.247 353.725 469.643 358.52 468.835C361.367 468.618 360.842 469.106 362.497 467.454C358.546 464.249 347.388 464.907 342.266 465.113ZM411.865 466.682L411.343 465.262C405.864 463.748 399.689 465.423 394.241 464.661C391.655 464.299 387.73 459.734 384.559 458.675C384.492 460.827 383.87 463.674 385.591 465.006C391.397 469.499 405.234 467.721 411.865 466.682ZM598.883 409.539C598.494 418.446 598.157 422.198 594.661 430.701C600.742 448.387 600.369 454.07 592.735 471.005C593.295 454.352 593.208 450.294 587.196 434.337C587.386 440.439 587.611 444.968 586.902 451.091C580.081 468.699 570.768 475.777 556.737 487.525C575.632 484.579 601.141 481.426 612.838 464.719C629.895 440.356 616.868 400.748 594.413 384.589C593.542 383.962 592.633 383.388 591.692 382.87L584.471 394.376C612.573 404.281 613.952 411.213 616.403 439.672C610.692 428.194 606.157 420.156 598.883 409.539ZM236.036 339.734C233.55 332.345 230.935 323.039 223.531 319.26C225.515 326.217 227.581 335.076 234.319 338.848C234.881 339.163 235.454 339.458 236.036 339.734ZM475.698 486.569C468.531 482.116 459.846 476.636 451.1 476.53C458.935 481.039 466.449 486.142 475.698 486.569ZM231.992 293.99L226.012 297.49L225.92 298.205C230.718 298.538 234.364 298.881 237.678 302.893C250.867 318.863 257.174 344.124 272.238 358.308L274.646 360.147C274.037 352.514 246.942 305.472 240.297 297.39C238.165 294.798 235.327 293.942 231.992 293.99ZM1367.53 472.665L946.102 472.664C913.383 472.665 880.66 472.69 847.944 472.514C836.934 472.455 804.249 470.583 795.466 472.13C777.312 473.427 770.342 476.019 753.609 483.54L1332.8 479.315C1346.73 478.716 1360.68 478.432 1374.63 478.464L1367.53 472.665ZM300.548 484.595C303.053 481.814 306.464 478.635 307.205 475.095C306.711 473.905 306.547 473.114 305.478 472.429C302.782 474.529 299.702 476.393 298.636 479.537C298.867 482.774 298.628 481.663 300.548 484.595ZM478.291 526.866C487.185 527.615 499.136 528.012 508.073 527.459C527.262 529.245 695.345 529.673 704.348 526.378C706.615 525.548 706.972 524.492 707.937 522.458C707.315 515.711 699.412 510.155 694.443 506.063C672.972 488.376 649.527 473.524 623.26 464.128C633.629 473.065 693.388 506.552 685.114 518.945C677.102 524.123 644.434 522.81 633.442 522.809L559.563 522.669C540.263 522.644 514.953 522.525 495.867 524.907C489.845 525.463 484.291 526 478.291 526.866ZM485.834 486.203C480.757 494.115 472.92 505.291 463.355 506.614C441.287 509.666 414.183 508.612 391.672 508.605L249.308 508.109C232.161 508.007 214.544 509.572 197.859 506.129C194.684 505.474 195.451 504.889 193.453 507.069C192.632 511.313 192.605 516.191 195.135 519.886C197.357 521.471 201.101 524.325 203.723 524.402C220.022 524.885 237.111 524.713 253.388 524.695L359.211 524.344L428.173 524.71C461.26 524.668 465.209 528.987 488.238 502.665C488.32 496.189 489.571 487.554 484.703 482.518C479.282 476.909 420.482 452.904 410.757 450.724C399.922 448.297 388.279 448.322 377.222 448.215C359.333 448.043 341.115 447.389 323.271 448.641C323.56 449.629 323.762 451.196 324.498 451.425C344.86 457.757 387.783 449.734 406.714 454.265C427.436 459.224 467.254 476.895 485.834 486.203ZM522.549 504.482C534.935 506.749 554.526 507.02 566.928 505.283C573.034 503.207 589.993 506.333 600.221 505.984L605.686 500.207C596.959 500.096 574.396 499.452 566.427 500.576L522.549 504.482ZM171.619 524.766C153.386 523.27 60.8577 525.052 52.3549 518.852C46.1699 501.016 121.997 470.334 136.64 464.04C114.604 467.789 98.1969 473.396 78.9386 485.197C69.5385 490.957 29.5572 511.283 31.367 523.84C38.625 533.22 153.025 527.276 171.551 527.598C174.339 527.663 182.499 528.269 184.225 526.196C180.571 524.775 175.641 524.902 171.619 524.766ZM387.158 500.641C382.478 500.401 377.667 500.09 372.993 500.084C374.597 493.79 376.385 485.937 378.915 479.95C380.502 476.196 384.537 474.914 384.876 471.172L379.226 470.173C375.267 480.719 371.549 491.353 368.077 502.069C372.857 502.176 383.315 502.969 387.158 500.641ZM291.967 401.918C294.577 405.776 294.757 404.864 294.928 409.073C289.863 414.982 281.989 409.545 279.87 416.084C280.779 418.674 280.499 419.318 282.42 420.644L283.615 420.258C289.06 416.988 298.877 411.871 301.446 406.163C300.479 401.055 296.524 402.057 291.967 401.918ZM631.957 499.598C620.468 500.182 618.221 499.427 608.199 504.934C616.157 505.325 624.928 505.926 632.822 505.878C638.616 506.001 651.121 507.102 655.529 503.646L655.189 502.358C649.036 499.132 638.806 498.8 631.957 499.598ZM127.389 406.367C140.558 366.394 148.305 353.627 193.201 354.043C203.663 343.936 207.623 342.191 221.678 338.006C217.055 329.336 208.234 314.878 211.061 304.722C212.608 299.164 219.854 297.258 220.607 293.523L220.207 293.249C203.573 303.405 196.302 316.328 194.605 335.763C166.745 342.39 144.086 349.47 127.969 375.368C111.859 401.253 107.619 438.353 137.313 456.45C160.124 470.352 190.357 465.895 214.02 456.878C180.356 450.986 175.259 438.573 170.85 406.93L166.224 422.795C164.554 436.636 166.539 444.116 172.666 456.661C125.374 411.599 187.482 383.707 180.385 366.281C178.436 365.05 177.883 364.394 175.408 364.644C153.753 366.829 138.293 390.424 127.389 406.367ZM318.535 494.687C313.418 494.977 308.199 494.953 303.5 496.997L303.919 498.246C313.102 501.128 324.796 500.514 334.42 500.371C339.414 500.468 342.571 500.884 346.993 498.36L346.846 497.001C339.665 493.779 326.388 494.361 318.535 494.687ZM530.479 465.842C526.939 462.945 519.776 456.542 515.621 458.066C501.327 463.309 514.971 477.923 521.156 481.788L521.451 481.969C535.439 484.781 540.97 483.039 553.249 475.389C565.412 467.81 593.758 438.838 561.988 437.316C552.396 436.822 544.755 429.903 534.841 428.26C509.091 444.492 530.25 456.835 547.792 465.824L530.479 465.842ZM226.274 377.645C241.698 381.472 258.77 395.549 273.335 390.725C279.677 388.624 275.907 377.416 273.023 373.846C261.436 356.8 243.777 348.66 223.627 349.334C190.456 361.43 176.108 391.504 185.228 425.343C190.869 446.274 226.56 454.018 238.884 436.296C244.575 428.142 220.39 413.984 212.58 409.284L230.167 413.463C236.912 417.454 240.935 420.064 248.368 422.574C256.369 417.496 262.296 412.347 255.274 402.436C248.137 392.362 235.145 386.087 226.274 377.645Z"/><path d="M265.265 299.757C266.894 299.54 267.807 299.168 269.323 298.633C256.001 288.54 240.839 279.073 230.328 265.864C223.417 257.179 220.149 247.227 221.45 236.143C224.207 212.644 278.878 145.755 297.717 130.911C320.545 112.923 366.913 99.0587 395.854 102.588C449.704 109.154 498.223 157.131 530.045 197.931C541.129 212.142 555.64 230.927 553.163 250.07C551.189 265.332 539.608 274.723 528.226 283.535C518.039 281.647 513.363 282.515 503.597 286.673L503.057 284.189C497.562 285.169 483.928 309.469 481.25 315.538C475.079 316.933 467.739 320.052 461.735 322.385C479.283 308.554 492.108 296.044 498.892 273.814C501.551 265.1 503.728 243.803 499.402 236.006L497.849 235.983C494.887 239.642 492.648 248.259 491.991 253.177C480.624 337.911 360.512 361.676 306.811 301.856C301.67 296.129 289.237 271.846 286.257 270.458C265.968 273.585 298.002 309.962 303.446 316.309C298.09 315.733 277.491 307.642 270.273 305.392C268.112 303.337 267.084 302.051 265.265 299.757Z"/><path fill="#FEFEFE" d="M291.402 153.624C291.658 154.326 292.07 155.676 291.98 156.383C289.579 175.215 288.096 190.819 288.3 209.964C333.825 190.134 380.033 178.648 429.103 191.476C448.415 196.525 467.266 203.714 486.368 209.83C486.838 187.648 484.338 176.728 479.059 155.432C488.034 168.315 491.595 183.193 493.226 198.58C494.485 206.458 491.096 217.173 481.162 213.492C428.478 193.968 378.66 182.499 323.65 202.269C301.353 210.283 277.51 216.332 276.631 247.347C276.556 249.986 278.012 251.119 279.787 252.508C283.237 253.213 285.112 252.094 288.358 250.754C327.919 234.711 365.637 225.176 408.1 233.776C420.56 236.3 435.763 240.257 447.582 242.53C466.662 246.198 491.037 219.579 506.631 207.177C498.224 224.774 477.446 245.635 457.536 248.852C441.619 251.424 422.608 243.665 406.821 240.744C390.203 237.669 373.261 236.438 356.375 238.368C347.147 239.513 335.419 242.903 326.492 245.286C314.612 248.459 287 259.925 276.285 259.252C265.081 252.008 276.512 229.884 280.508 220.743C277.188 216.787 273.38 211.414 270.212 207.204L282.204 213.185C281.864 193.437 280.615 170.873 291.402 153.624Z"/><path fill="#FEFEFE" d="M250.622 220.667C256.994 220.434 263.641 219.421 267.3 225.752C266.08 233.371 255.302 234.281 249.33 241.371C248.365 244.608 248.257 243.44 249.312 246.395C251.879 246.903 255.779 243.62 259.698 242.287C263.978 247.121 258.207 257.303 266.272 266.731C269.168 269.371 270.546 270.127 269.464 273.913C257.881 279.26 215.945 250.29 250.622 220.667Z"/><path fill="#FEFEFE" d="M514.625 220.381C527.778 221.336 532.517 225.667 537.771 237.221C536.546 251.598 533.152 263.753 520.974 272.798C517.636 275.277 511.635 279.104 508.632 274.718L509.39 271.56C512.453 268.104 515.291 265.092 517.702 261.113C516.136 260.861 514.572 260.591 513.012 260.304C512.197 259.542 511.146 258.432 510.943 257.341C506.899 235.664 522.165 246.089 526.24 244.86C524.314 234.294 510.92 236.356 509.487 225.93C510.085 223.212 512.349 222.019 514.625 220.381Z"/><path fill="#FEFEFE" d="M338.092 251.501C341.768 254.221 344.542 265.901 345.911 270.587L368.377 286.051C360.947 286.669 353.508 287.179 346.063 287.58C343.319 294.267 340.428 300.381 337.336 306.91C334.477 300.727 331.89 290.794 329.914 283.966C322.421 278.328 315.024 272.564 307.726 266.676C314.693 266.582 323.551 267.363 330.669 267.82L338.092 251.501Z"/><path fill="#FEFEFE" d="M436.263 254.331C442.121 257.404 443.685 261.954 446.385 267.754C453.95 267.545 461.906 267.036 469.499 266.673L447.829 283.551C445.516 289.547 442.983 298.423 440.98 304.736C439.766 304.866 439.906 304.688 438.612 304.104C435.605 299.63 433.365 292.614 431.458 287.419C422.982 287.449 416.181 286.836 407.716 286.059L431.012 270.817L436.263 254.331Z"/><path fill="#FEFEFE" d="M387.86 65.8603C415.761 63.1031 451.842 87.6488 474.405 102.198C470.895 91.4448 467.488 80.6583 464.186 69.8397C478.752 89.5415 488.562 107.194 498.788 129.21C475.836 113.828 472.097 109.065 444.593 96.0918C431.652 89.0025 406.231 79.736 391.571 81.2931C361.842 84.4507 324.98 104.312 298.335 117.261C323.446 93.425 354.931 76.1835 387.86 65.8603Z"/><path fill="#FEFEFE" d="M520.686 308.692C552.937 311.498 521.535 351.019 511.348 361.79C511.03 361.828 510.711 361.852 510.391 361.86C480.286 362.457 511.209 317.879 520.686 308.692Z"/><path fill="#FEFEFE" d="M410.014 362.712C410.701 362.757 411.526 362.804 412.168 363.087C413.02 363.463 414.382 364.378 414.742 365.221C417.332 371.279 412.87 419.828 409.93 426.919C408.93 429.333 408.045 430.44 405.664 431.455C403.346 429.876 403.895 429.787 402.88 426.677C400.798 409.084 402.814 388.934 406.484 371.686L393.56 374.618C398.95 370.52 404.436 366.55 410.014 362.712Z"/><path fill="#FEFEFE" d="M323.752 356.674C325.574 357.306 330.282 358.77 330.74 360.14C335.254 373.65 328.513 417.398 326.799 430.295C324.887 429.565 321.743 427.975 321.025 426.161C314.399 409.43 319.477 372.92 323.752 356.674Z"/><path fill="#FEFEFE" d="M243.109 513.315C248.665 512.719 260.541 511.673 264.455 516.429L264.215 518.267C261.905 520.862 259.028 520.902 255.571 521.454C248.727 521.733 238.431 522.277 232.989 517.29L233.083 515.714C235.717 513.255 239.396 513.541 243.109 513.315Z"/><path fill="#FEFEFE" d="M483.672 496.115C483.926 496.558 484.42 498.326 484.604 498.925C483.523 505.417 478.308 509.567 473.665 514.092C472.028 512.244 472.507 512.814 472.205 509.987C474.039 504.056 479.082 500.093 483.672 496.115Z"/><path fill="#FEFEFE" d="M465.964 507.457C472.162 511.107 467.419 517.816 464.465 521.79C458.411 516.625 462.114 512.393 465.964 507.457Z"/><path fill="#FEFEFE" fill-opacity="0.031372551" d="M518.364 293.774L518.808 293.858C536.732 297.312 595.252 315.582 605.457 330.723L604.66 331.549C602.134 329.676 600.594 328.091 598.382 325.901C579.354 316.983 539.142 298.671 519.371 298.242C499.259 311.609 480.538 357.033 468.351 378.632C460.889 391.857 444.901 417.993 439.401 431.717C437.763 435.748 435.593 441.865 433.006 445.131L432.299 444.198C432.311 438.975 434.34 431.477 436.961 426.999C460.443 386.887 481.807 345.529 505.492 305.578C508.296 300.849 513.906 296.937 518.364 293.774Z"/><path fill="#FEFEFE" fill-opacity="0.97647059" d="M519.371 298.242C539.142 298.671 579.354 316.983 598.382 325.901L596.855 327.608C574.612 319.415 543.601 305.187 522.071 299.776L513.288 304.048C493.603 337.037 475.921 371.538 457.112 405.057C451.682 414.733 445.823 425.005 441.123 435.013L439.401 431.717C444.901 417.993 460.889 391.857 468.351 378.632C480.538 357.033 499.259 311.609 519.371 298.242Z"/><path fill="#FEFEFE" fill-opacity="0.0078431377" d="M291.967 401.918C296.524 402.057 300.479 401.055 301.446 406.163C298.877 411.871 289.06 416.988 283.615 420.258L282.42 420.644C280.499 419.318 280.779 418.674 279.87 416.084C281.989 409.545 289.863 414.982 294.928 409.073C294.757 404.864 294.577 405.776 291.967 401.918Z"/><path d="M384.559 458.675C387.73 459.734 391.655 464.299 394.241 464.661C399.689 465.423 405.864 463.748 411.343 465.262L411.865 466.682C405.234 467.721 391.397 469.499 385.591 465.006C383.87 463.674 384.492 460.827 384.559 458.675Z"/><path fill="#FEFEFE" fill-opacity="0.015686275" d="M451.1 476.53C459.846 476.636 468.531 482.116 475.698 486.569C466.449 486.142 458.935 481.039 451.1 476.53Z"/><path fill="#FEFEFE" fill-opacity="0.11764706" d="M478.291 526.866C484.291 526 489.845 525.463 495.867 524.907L496.592 526.586C500.898 527.181 504.42 527.017 508.073 527.459C499.136 528.012 487.185 527.615 478.291 526.866Z"/><path fill="#FEFEFE" fill-opacity="0.11372549" d="M171.619 524.766C175.641 524.902 180.571 524.775 184.225 526.196C182.499 528.269 174.339 527.663 171.551 527.598C171.782 526.851 171.647 525.608 171.619 524.766Z"/><path fill="#FEFEFE" d="M1298.81 233.916C1349.08 232.572 1399.64 233.746 1449.92 233.272C1480.23 232.986 1483.62 235.843 1505.82 255.852C1600.67 255.62 1695.44 253.508 1790.28 254.035C1809.78 254.143 1829.34 256.875 1848.96 257.008C1843.07 265.102 1836.87 272.969 1830.38 280.592C1821.3 279.955 1813.84 279.774 1804.73 279.777C1808.46 276.213 1812.32 273.437 1816.43 270.362C1794.07 267.82 1772.7 268.498 1750.24 268.53L1664.81 268.659L1363.98 269.661C1354.35 296.091 1340.63 320.978 1333.7 349.471C1350.56 340.681 1367.4 326.459 1382.44 314.492C1397.46 302.464 1412.6 290.589 1427.86 278.872C1448.2 277.592 1476.23 278.511 1497.08 278.701C1471.62 299.87 1444.91 319.977 1419.19 340.763C1411.58 346.916 1388.82 364.267 1383.08 370.741L1384.06 373.255C1393.17 383.684 1404 398.065 1412.85 409.064L1469.61 479.503C1446.24 479.457 1424.49 480.745 1401.22 481.59C1378.84 456.338 1350.42 417.23 1329.2 389.765L1318.25 389.739C1314.98 401.74 1306.8 430.731 1296.26 436.225C1285.44 441.862 1261.55 438.53 1250.01 435.439C1254.65 415.716 1264.58 389.658 1271.72 370.451C1284.36 336.821 1297.22 303.274 1310.29 269.812C1259.28 269.34 1209.44 270.38 1158.7 270.524L881.063 270.574C909.561 228.144 900.359 235.307 950.451 235.253L1018.4 235.188C1071.28 234.636 1124.17 234.388 1177.05 234.446C1216.91 234.435 1259.2 235.114 1298.81 233.916ZM945.301 254.694C1021.86 258.146 1092.93 255.662 1168.63 256.055C1273.44 256.009 1381.35 257.344 1485.89 255.873C1483.36 254.166 1475.87 248.835 1473.4 248.568C1446.45 245.65 1415.62 247.2 1388.72 247.239C1346.89 247.299 1305.38 246.854 1263.68 247.606L1077.54 248.553C1044.68 248.739 976.018 248.35 945.301 254.694Z"/><path fill="#FEFEFE" d="M716.242 299.628C743.134 298.793 773.646 298.623 799.92 304.327C813.393 307.253 812.46 329.769 808.647 339.551C802.46 355.423 792.035 362.191 777.391 369.041C797.155 381.82 798.408 396.96 784.447 416.568C775.062 429.749 763.738 434.932 747.9 437.128C737.487 438.991 716.754 438.546 705.531 438.529L641.161 438.379C640.338 430.944 639.334 425.063 637.931 417.707C648.184 381.86 666.205 346.193 676.272 310C676.525 309.091 675.736 304.372 675.797 302.442C681.745 299.11 708.058 299.82 716.242 299.628ZM687.593 384.416L682.128 400.027C692.387 400.334 709.466 401.262 719.315 400.532C725.953 400.106 732.951 399.307 738.509 395.307C744.936 382.259 705.261 383.149 698.43 384.011C695.064 384.16 690.893 384.456 687.593 384.416ZM699.706 351.621C709.953 351.858 732.438 352.889 741.65 350.805C744.892 349.787 747.322 349.352 749.569 346.796C750.398 343.529 750.564 344.778 748.872 341.816C740.003 335.679 719.309 337.224 708.46 337.754C702.385 340.105 701.608 345.876 699.706 351.621Z"/><path fill="#FEFEFE" d="M1024.95 300.278C1035.49 299.994 1071.97 297.013 1079.5 303.868C1088.71 312.252 1097.96 420.056 1098.79 436.815C1079.4 439.386 1066.58 438.41 1047.18 437.24C1044.81 429.664 1043.98 417.84 1043.39 409.954C1027.17 409.004 1006.11 409.656 989.799 409.85C965.049 443.838 956.65 440.873 916.139 436.963C923.595 420.764 947.693 392.915 959.614 377.784C978.163 354.241 1001.81 317.775 1024.95 300.278ZM1017.05 374.627L1040.74 374.601C1040.62 363.234 1040.7 347.85 1037.38 337.068C1032.12 344.131 1014.8 365.833 1014.86 373.43C1015.61 374.004 1016.15 374.583 1017.05 374.627Z"/><path fill="#FEFEFE" d="M1634.12 300.258C1663.96 297.866 1708 298.915 1737.9 303.33C1745.82 304.5 1733.76 331.091 1731.22 335.38C1710.67 341.667 1679.87 339.632 1657.87 339.284C1656.73 343.124 1654.85 348.071 1653.5 351.956C1671.87 351.394 1692.12 351.813 1710.63 351.82C1703.17 398.517 1678.35 386.223 1641.11 386.42C1639.78 389.956 1638.6 392.481 1638.5 396.282C1640.1 399.537 1639.12 398.512 1643.06 400.077C1662.81 399.005 1694.28 397.076 1712.54 402.906C1711.8 414.949 1706.19 428.189 1698.39 437.357C1678.19 438.881 1657.78 438.447 1637.54 438.481C1625.64 438.501 1612.99 439.402 1601.19 437.977C1594.21 437.133 1586.86 435.687 1582.34 429.826C1579.4 426.024 1578.49 421.176 1579.09 416.474C1580.74 403.421 1612.53 310.925 1620.48 305.009C1620.61 304.914 1620.74 304.824 1620.87 304.731C1624.6 302.008 1629.68 301.258 1634.12 300.258Z"/><path fill="#FEFEFE" d="M1175.78 300.493C1182.54 299.125 1207.85 300.297 1215.6 300.57C1231.57 301.134 1264.22 297.482 1277.79 303.01C1282.71 309.559 1271.16 330.486 1267.83 336.915C1243.74 342.169 1214.11 335.838 1183.83 340.702C1171.54 358.988 1167.39 377.481 1162.75 398.602C1184.24 401.188 1216.9 400.111 1239.43 399.928C1243.21 399.898 1245.31 399.973 1249.06 400.425C1250.51 403.214 1248.98 407.564 1247.86 410.322C1236.22 438.234 1230.71 438.676 1200.57 437.689C1183.48 438.657 1108.17 446.638 1105.76 418.826C1104.06 399.128 1127.93 333.201 1140.93 314.92C1148.34 304.494 1164.39 301.757 1175.78 300.493Z"/><path fill="#FEFEFE" d="M1539.39 299.632C1557.96 299.334 1576.66 299.084 1595.13 301.085C1613.19 303.042 1596.59 329.311 1591.41 337.828C1561.48 341.321 1539.26 335.285 1510.45 341.487C1500 354.778 1492.57 381.337 1489.38 397.726C1503.9 401.017 1531.07 399.605 1546.38 399.949C1553.87 400.117 1561.15 399.314 1568.69 400.969C1575.37 406.147 1568.02 420.46 1565.35 426.806C1563.57 430.01 1561.15 434.522 1557.82 436.294C1547.93 441.553 1464.51 439.681 1452.22 435.535C1441.86 432.036 1435.58 418.735 1430.96 409.611C1433.67 389.197 1456.38 328.791 1470.97 312.705C1484.71 297.568 1519.68 299.863 1539.39 299.632Z"/><path fill="#FEFEFE" d="M1762.67 300.254C1777.98 299.715 1793.05 298.333 1807.73 303.099C1806.25 322.097 1783.14 380.86 1775.63 399.982C1786.24 399.163 1840.97 396.835 1846.69 402.604C1849.65 410.235 1840.37 434.797 1832.83 438.272C1813.63 438.445 1731.36 443.018 1720.25 432.165C1711.8 417.399 1728.91 379.722 1734.63 364.765C1740.47 349.468 1750.22 309.29 1762.67 300.254Z"/><path fill="#FEFEFE" d="M788.388 234.885C793.295 234.795 809.958 233.862 812.349 237.736C811.124 245.465 795.949 264.065 790.765 270.639L640.897 271.473C640.542 293.159 634.288 309.787 625.303 329.303C620.508 319.792 618.433 316.133 610.809 308.709C595.152 297.899 585.431 295.542 567.353 290.222C584.168 272.91 586.824 259.301 588.072 236.353C654.141 236.394 722.531 237.302 788.388 234.885Z"/><path fill="#FEFEFE" d="M841.482 300.324C857.321 299.788 873.179 300.082 888.988 301.204C883.795 328.203 866.023 373.366 856.191 399.974C881.565 400.447 906.947 400.394 932.319 399.816C925.829 409.329 916.316 421.277 909.243 430.701C908.917 431.096 908.584 431.486 908.245 431.87C903.688 437.023 894.109 438.443 888.041 438.221C871.55 437.618 806.955 442.334 796.393 432.915C795.802 431.297 795.781 429.785 795.941 428.089C797.474 411.79 832.726 307.528 841.482 300.324Z"/><path fill="#FEFEFE" d="M866.587 235.412C875.963 235.199 885.948 235.36 895.375 235.345C888.306 246.628 878.133 259.684 870.008 270.611L841.156 270.628C847.403 259.812 858.796 245.277 866.587 235.412Z"/><path fill="#FEFEFE" d="M827.239 235.401L855.653 235.276C849.748 245.01 837.283 260.7 830.022 270.38C822.686 271.06 809.515 270.627 801.748 270.596C809.616 258.537 817.685 246.176 827.239 235.401Z"/><path fill="#FEFEFE" d="M1904.61 254.968C1913.93 254.653 1924.79 254.95 1934.22 254.975C1930.61 260.382 1920.59 277.641 1915.36 278.901C1905.96 281.205 1894.16 280.554 1884.31 280.391C1890.92 270.768 1896.25 263.141 1904.61 254.968Z"/><path fill="#FEFEFE" d="M1861.11 254.998L1892.05 255.06C1886.1 264.003 1879.41 272.428 1872.04 280.246C1866.16 280.873 1848.33 280.404 1841.56 280.41C1847.92 272.007 1855.02 263.149 1861.11 254.998Z"/></svg>